<svg width="90" height="126" viewBox="0 0 90 126" fill="none" xmlns="http://www.w3.org/2000/svg">
<path d="M0.669983 25L8.73898 115.493L44.945 125.543L81.252 115.48L89.33 25H0.669983ZM69.88 75.488L67.53 97.38L67.539 99.255L45 105.55L44.982 105.566L22.263 99.341L20.726 82H31.867L32.657 90.766L45.004 94.061L45 94.076V94.044L57.394 90.549L58.702 76H32.795L32.573 73.645L32.067 67.998L31.802 65H59.688L60.702 54H18.229L18.006 51.411L17.5 45.381L17.235 42H72.832L72.565 45.334L69.88 75.488ZM70 13.374L62.851 5H70V0H54V4.363L62.39 12H54V17H70V13.374ZM51 13.374L44.193 5H51V0H36V4.363L43.733 12H36V17H51V13.374ZM33 12H25V5H33V0H19V17H33V12Z" fill="#CCF381"/>
</svg>
