<svg width="124" height="28" viewBox="0 0 124 28" fill="none" xmlns="http://www.w3.org/2000/svg">
<path d="M38.53 27.82V0.740003H40V5C40.1736 4.81129 40.334 4.61081 40.48 4.4C41.0807 3.15312 42.0243 2.1033 43.2004 1.37359C44.3764 0.643884 45.7361 0.264531 47.12 0.28C50.47 0.18 53.19 1.42 54.79 4.4C55.8081 6.25123 56.3683 8.31919 56.424 10.4311C56.4797 12.5431 56.0291 14.6377 55.11 16.54C53.62 19.88 49.94 21.54 46 20.93C44.7739 20.8256 43.5935 20.4158 42.5664 19.7381C41.5393 19.0603 40.6983 18.1362 40.12 17.05V27.82H38.53ZM40 10.32C40.13 11.64 40.18 12.58 40.33 13.5C40.91 17.12 43.05 19.27 46.41 19.66C47.9877 19.9193 49.6065 19.6235 50.9905 18.823C52.3745 18.0225 53.4381 16.7669 54 15.27C54.6457 13.7304 54.9564 12.071 54.9116 10.402C54.8668 8.73308 54.4674 7.09276 53.74 5.59C53.1402 4.24839 52.1202 3.13838 50.8339 2.42761C49.5477 1.71683 48.0651 1.44389 46.61 1.65C45.2439 1.74898 43.9425 2.27117 42.8869 3.14398C41.8313 4.01678 41.0739 5.19681 40.72 6.52C40.4068 7.7717 40.1664 9.04049 40 10.32ZM86.41 14C86.1873 15.9066 85.2797 17.6675 83.8559 18.9551C82.4322 20.2426 80.5894 20.9693 78.67 21C72.51 21.31 69.62 17.22 69.16 12.5C68.8407 9.93679 69.2569 7.33563 70.36 5C71.1282 3.3979 72.3863 2.08181 73.9522 1.24224C75.5181 0.402671 77.3105 0.0831771 79.07 0.330003C80.7428 0.47178 82.3286 1.1362 83.6028 2.22918C84.8771 3.32216 85.7752 4.7883 86.17 6.42C86.483 7.9061 86.7133 9.4084 86.86 10.92H70.67C70.37 15.2 72.67 18.64 75.93 19.47C79.99 20.47 83.46 18.71 84.72 14.85C85 13.86 85.51 13.72 86.41 14ZM70.67 9.55H85.14C85.05 4.99 82.21 1.69 78.36 1.64C74 1.57 70.86 4.75 70.67 9.55ZM89.39 14.1H90.81C90.8625 15.1449 91.202 16.1551 91.7912 17.0195C92.3805 17.884 93.1966 18.5692 94.15 19C95.3472 19.5388 96.6505 19.8006 97.9629 19.7659C99.2752 19.7313 100.563 19.4011 101.73 18.8C102.366 18.5133 102.899 18.0383 103.256 17.4393C103.614 16.8403 103.779 16.1459 103.73 15.45C103.767 14.7788 103.583 14.114 103.208 13.5564C102.833 12.9987 102.286 12.5787 101.65 12.36C100.09 11.78 98.43 11.46 96.84 10.95C95.1856 10.4789 93.568 9.8873 92 9.18C89.44 7.93 89.28 3.06 92.18 1.52C93.6649 0.682038 95.3361 0.229297 97.0409 0.203096C98.7458 0.176894 100.43 0.578065 101.94 1.37C102.855 1.87553 103.594 2.64788 104.058 3.58407C104.523 4.52027 104.691 5.57582 104.54 6.61H103.32C103.32 6.55 103.21 6.5 103.21 6.44C103.06 2.55 99.8 1.35 96.3 1.69C95.2552 1.81888 94.2404 2.12671 93.3 2.6C92.7351 2.85836 92.2643 3.28572 91.9526 3.82309C91.6409 4.36047 91.5037 4.98134 91.56 5.6C91.5617 6.21894 91.7549 6.8222 92.1129 7.32707C92.471 7.83193 92.9765 8.21369 93.56 8.42C95.1 8.98 96.71 9.34 98.29 9.78C99.56 10.13 100.88 10.36 102.11 10.78C102.978 11.0646 103.739 11.6061 104.293 12.3329C104.847 13.0597 105.166 13.9374 105.21 14.85C105.358 15.8499 105.188 16.8711 104.723 17.7686C104.258 18.6662 103.522 19.3944 102.62 19.85C99.28 21.74 93.78 21.24 91.33 18.85C90.7091 18.2255 90.218 17.4843 89.885 16.669C89.552 15.8537 89.3838 14.9806 89.39 14.1ZM123.21 6.61H121.88C121.88 6.43 121.81 6.27 121.79 6.12C121.768 5.12306 121.405 4.16379 120.761 3.40284C120.116 2.64189 119.23 2.12545 118.25 1.94C116.401 1.40958 114.429 1.5045 112.64 2.21C111.933 2.41278 111.31 2.83884 110.865 3.42458C110.42 4.01032 110.176 4.72432 110.17 5.46C110.145 6.1825 110.37 6.89145 110.808 7.46715C111.245 8.04286 111.867 8.45006 112.57 8.62C114.57 9.24 116.62 9.62 118.65 10.18C119.308 10.3379 119.956 10.5349 120.59 10.77C121.537 11.1089 122.36 11.7257 122.951 12.5397C123.543 13.3538 123.874 14.3272 123.904 15.3328C123.933 16.3384 123.658 17.3295 123.115 18.1764C122.572 19.0233 121.786 19.6868 120.86 20.08C119.449 20.7208 117.919 21.0598 116.37 21.0753C114.82 21.0908 113.284 20.7825 111.86 20.17C110.689 19.665 109.701 18.8135 109.029 17.7301C108.357 16.6466 108.033 15.3833 108.1 14.11H109.4C109.641 15.2703 110.16 16.3545 110.914 17.2686C111.668 18.1828 112.633 18.8994 113.727 19.3565C114.82 19.8135 116.008 19.9971 117.188 19.8914C118.369 19.7857 119.505 19.394 120.5 18.75C121.106 18.4352 121.609 17.9532 121.949 17.3612C122.29 16.7692 122.453 16.0921 122.42 15.41C122.45 14.7384 122.26 14.0753 121.88 13.5213C121.499 12.9673 120.948 12.5525 120.31 12.34C118.75 11.76 117.09 11.45 115.5 10.94C113.836 10.4762 112.209 9.89126 110.63 9.19C108.13 7.96 107.93 3.13 110.78 1.59C112.283 0.716931 113.987 0.247935 115.726 0.228658C117.464 0.209382 119.178 0.640482 120.7 1.48C121.571 1.99974 122.271 2.76135 122.717 3.67215C123.163 4.58294 123.334 5.60364 123.21 6.61ZM36.1 20.51C35.5764 20.7083 34.9984 20.7078 34.4751 20.5089C33.9518 20.3099 33.5195 19.9261 33.26 19.43C31.63 16.99 29.83 14.66 28.1 12.28L27.35 11.28C25.29 14.04 23.23 16.69 21.35 19.44C21.1051 19.9141 20.6962 20.283 20.1994 20.478C19.7027 20.673 19.1521 20.6808 18.65 20.5L26.38 10.13L19.19 0.76C19.7076 0.57312 20.2738 0.570558 20.793 0.752744C21.3122 0.934931 21.7527 1.2907 22.04 1.76C23.71 4.2 25.56 6.53 27.4 9C29.25 6.55 31.08 4.21 32.79 1.79C33.0363 1.32361 33.4454 0.964028 33.9396 0.779645C34.4337 0.595263 34.9784 0.598949 35.47 0.790002L32.68 4.49C31.43 6.14 30.2 7.8 28.9 9.41C28.7953 9.50379 28.7115 9.61862 28.6541 9.74699C28.5967 9.87537 28.5671 10.0144 28.5671 10.155C28.5671 10.2956 28.5967 10.4346 28.6541 10.563C28.7115 10.6914 28.7953 10.8062 28.9 10.9C31.29 14.07 33.66 17.25 36.1 20.51ZM68.92 0.660001V2.06C67.9086 1.99366 66.8945 2.14014 65.9432 2.48997C64.9919 2.8398 64.1245 3.38521 63.3971 4.091C62.6696 4.7968 62.0982 5.64729 61.7198 6.58757C61.3413 7.52786 61.1643 8.53705 61.2 9.55V20.55H59.77V0.740003H61.17V4.8C62.9 1.84 65.57 0.740001 68.92 0.660001ZM0.130005 10C0.340005 9 0.470005 7.91 0.760005 6.89C2.49 0.740001 9.54 -1.82 14.39 1.99C17.23 4.22 17.94 7.38 17.8 10.94H1.8C1.54 17.3 6.13 21.14 12 19.18C12.9522 18.8394 13.8046 18.267 14.4802 17.5146C15.1559 16.7621 15.6335 15.8532 15.87 14.87C16.18 13.87 16.68 13.7 17.63 13.99C17.4735 15.2074 17.0431 16.3735 16.371 17.4006C15.699 18.4277 14.8029 19.2891 13.75 19.92C12.0104 20.8713 10.0146 21.2482 8.04785 20.9967C6.08114 20.7453 4.24431 19.8784 2.8 18.52C1.37116 16.9134 0.50721 14.8835 0.340005 12.74C0.340005 12.4 0.210005 12.06 0.140005 11.74C0.133338 11.1467 0.130005 10.5667 0.130005 10ZM1.82 9.57H16.29C16.2 4.96 13.29 1.69 9.41 1.66C5.09 1.6 2 4.8 1.81 9.55L1.82 9.57Z" fill="#CCF381"/>
</svg>
