<svg width="86" height="84" viewBox="0 0 86 84" fill="none" xmlns="http://www.w3.org/2000/svg">
<path fill-rule="evenodd" clip-rule="evenodd" d="M43 0.511993C19.507 0.511993 0.454956 19.559 0.454956 43.057C0.454956 61.854 12.645 77.802 29.55 83.427C31.676 83.821 32.457 82.504 32.457 81.38C32.457 80.366 32.417 77.014 32.399 73.46C20.562 76.033 18.065 68.44 18.065 68.44C16.13 63.522 13.341 62.214 13.341 62.214C9.48096 59.574 13.631 59.628 13.631 59.628C17.904 59.928 20.154 64.013 20.154 64.013C23.948 70.517 30.107 68.636 32.534 67.549C32.917 64.799 34.019 62.921 35.236 61.859C25.786 60.784 15.852 57.135 15.852 40.833C15.852 36.188 17.514 32.393 20.236 29.413C19.794 28.341 18.338 24.013 20.648 18.153C20.648 18.153 24.22 17.011 32.348 22.516C35.743 21.573 39.383 21.1 42.998 21.084C46.614 21.101 50.256 21.574 53.656 22.516C61.776 17.012 65.344 18.154 65.344 18.154C67.66 24.014 66.204 28.341 65.762 29.414C68.49 32.392 70.14 36.188 70.14 40.834C70.14 57.174 60.187 60.772 50.713 61.824C52.239 63.144 53.599 65.734 53.599 69.704C53.599 75.396 53.551 79.977 53.551 81.378C53.551 82.508 54.317 83.836 56.473 83.418C73.369 77.786 85.543 61.844 85.543 43.053C85.545 19.56 66.497 0.511993 43 0.511993Z" fill="#CCF381"/>
<path d="M16.5699 61.596C16.4749 61.808 16.1419 61.871 15.8399 61.726C15.5299 61.586 15.3579 61.299 15.4579 61.086C15.5479 60.87 15.8819 60.809 16.1909 60.954C16.5009 61.094 16.6759 61.384 16.5699 61.596ZM18.2929 63.52C18.0899 63.707 17.6929 63.62 17.4229 63.322C17.1449 63.025 17.0929 62.628 17.2989 62.438C17.5069 62.25 17.8919 62.338 18.1689 62.635C18.4489 62.935 18.5039 63.328 18.2919 63.519L18.2929 63.52ZM19.9699 65.968C19.7099 66.15 19.2829 65.98 19.0199 65.601C18.7579 65.224 18.7579 64.771 19.0249 64.588C19.2889 64.406 19.7089 64.57 19.9749 64.945C20.2369 65.33 20.2369 65.784 19.9699 65.968ZM22.2679 68.336C22.0349 68.593 21.5379 68.524 21.1749 68.173C20.8029 67.83 20.6999 67.343 20.9329 67.086C21.1699 66.829 21.6689 66.901 22.0349 67.249C22.4049 67.591 22.5169 68.08 22.2679 68.336ZM25.4399 69.71C25.3359 70.044 24.8579 70.195 24.3759 70.054C23.8939 69.908 23.5799 69.518 23.6759 69.182C23.7759 68.846 24.2579 68.689 24.7429 68.84C25.2229 68.984 25.5389 69.37 25.4399 69.71ZM28.9199 69.965C28.9329 70.315 28.5239 70.607 28.0179 70.613C27.5099 70.625 27.0979 70.341 27.0919 69.995C27.0919 69.641 27.4919 69.353 27.9999 69.345C28.5059 69.335 28.9199 69.617 28.9199 69.965ZM32.1599 69.414C32.2199 69.756 31.8699 70.108 31.3669 70.201C30.8729 70.293 30.4169 70.081 30.3529 69.741C30.2929 69.391 30.6499 69.041 31.1429 68.949C31.6459 68.861 32.0959 69.066 32.1599 69.414Z" fill="#CCF381"/>
</svg>
