<svg width="128" height="128" viewBox="0 0 128 128" fill="none" xmlns="http://www.w3.org/2000/svg">
<path d="M107.375 17.0027H9.48133C8.36964 16.9888 7.26624 17.1888 6.23549 17.591C5.20473 17.9931 4.26726 18.5893 3.47777 19.3448C2.68829 20.1004 2.06259 21.0001 1.63719 21.9915C1.2118 22.9829 0.995216 24.0461 1.00008 25.1192V119.985C1.00945 121.049 1.23653 122.101 1.66829 123.081C2.10004 124.06 2.72798 124.947 3.51602 125.692C4.30407 126.436 5.23671 127.023 6.26041 127.419C7.28411 127.814 8.3787 128.011 9.48133 127.997H107.375C108.488 128.025 109.596 127.839 110.634 127.45C111.673 127.061 112.621 126.477 113.423 125.731C114.225 124.986 114.866 124.094 115.309 123.108C115.751 122.121 115.986 121.06 116 119.985V25.1192C116 24.0355 115.776 22.9628 115.34 21.9643C114.904 20.9657 114.265 20.0616 113.461 19.3051C112.657 18.5486 111.705 17.9552 110.659 17.5597C109.614 17.1643 108.497 16.9749 107.375 17.0027ZM35.0688 111.591H18.0344V58.6257H35.0688V111.591ZM26.5516 51.4457C24.597 51.4457 22.6863 50.8863 21.061 49.8382C19.4358 48.79 18.1691 47.3003 17.4211 45.5574C16.6731 43.8144 16.4774 41.8965 16.8587 40.0462C17.24 38.1959 18.1813 36.4963 19.5634 35.1623C20.9456 33.8283 22.7065 32.9198 24.6236 32.5518C26.5407 32.1837 28.5278 32.3726 30.3336 33.0946C32.1394 33.8165 33.6829 35.0391 34.7689 36.6077C35.8548 38.1764 36.4344 40.0205 36.4344 41.9071C36.4344 44.4369 35.3932 46.8631 33.5398 48.6519C31.6864 50.4407 29.1727 51.4457 26.5516 51.4457ZM98.8938 111.591H81.8594V85.854C81.8594 79.7146 81.8594 71.9797 73.0188 71.9797C64.1782 71.9797 62.7766 78.6741 62.7766 85.5765V111.764H45.7422V58.6257H62.0938V65.9097H62.3094C63.9526 63.2159 66.3196 61.0008 69.16 59.4988C72.0004 57.9968 75.2087 57.2636 78.4453 57.377C95.6953 57.377 98.8938 68.3377 98.8938 82.5936V111.591Z" fill="#CCF381"/>
</svg>
